<svg xmlns="http://www.w3.org/2000/svg" width="1200" height="900" viewBox="0 0 1200 900">
  <defs>
    <linearGradient id="bg" x1="0" y1="0" x2="1" y2="1"><stop offset="0" stop-color="#f5efe6"/><stop offset="1" stop-color="#dfd2c0"/></linearGradient>
    <linearGradient id="gold" x1="0" y1="0" x2="1" y2="1"><stop offset="0" stop-color="#d4ad68"/><stop offset="1" stop-color="#98713d"/></linearGradient>
    <filter id="shadow"><feDropShadow dx="0" dy="16" stdDeviation="22" flood-opacity=".18"/></filter>
  </defs>
  <rect width="1200" height="900" fill="url(#bg)"/>
  <text x="70" y="78" font-family="Arial" font-size="18" letter-spacing="4" fill="#98713d">KONZEPTPROJEKT · DIGITAL</text>
  <text x="70" y="140" font-family="Georgia" font-size="56" fill="#191714">AURÉLIA — Landingpage</text>
  <text x="70" y="178" font-family="Arial" font-size="20" fill="#6f675f">Web Banner · Hero Section · Responsive Campaign</text>

  <g transform="translate(75 235)" filter="url(#shadow)">
    <rect width="860" height="520" rx="18" fill="#fffdf8"/>
    <rect x="0" y="0" width="860" height="58" rx="18" fill="#fffdf8"/>
    <circle cx="28" cy="29" r="5" fill="#d2c6b7"/><circle cx="46" cy="29" r="5" fill="#d2c6b7"/><circle cx="64" cy="29" r="5" fill="#d2c6b7"/>
    <text x="95" y="36" font-family="Georgia" font-size="20" fill="#191714">AURÉLIA</text>
    <text x="560" y="34" font-family="Arial" font-size="11" fill="#6f675f">KOLLEKTION</text>
    <text x="645" y="34" font-family="Arial" font-size="11" fill="#6f675f">STORY</text>
    <text x="710" y="34" font-family="Arial" font-size="11" fill="#6f675f">KONTAKT</text>
    <rect x="0" y="58" width="860" height="462" fill="#eee4d6"/>
    <rect x="0" y="58" width="430" height="462" fill="#f8f3ec"/>
    <text x="58" y="135" font-family="Arial" font-size="11" letter-spacing="3" fill="#98713d">FINE JEWELLERY · 2026</text>
    <text x="58" y="205" font-family="Georgia" font-size="54" fill="#191714">Zeitlose Eleganz</text>
    <text x="58" y="260" font-family="Georgia" font-size="54" fill="#191714">für jeden Tag.</text>
    <text x="58" y="309" font-family="Arial" font-size="15" fill="#6f675f">Klare Formen, hochwertige Materialien</text>
    <text x="58" y="333" font-family="Arial" font-size="15" fill="#6f675f">und Details, die bleiben.</text>
    <rect x="58" y="372" width="172" height="42" rx="21" fill="#191714"/>
    <text x="86" y="399" font-family="Arial" font-size="12" fill="#fff">KOLLEKTION ANSEHEN</text>
    <text x="58" y="460" font-family="Arial" font-size="10" letter-spacing="2.6" fill="#98713d">MINIMAL · ELEGANT · MODERN</text>

    <circle cx="650" cy="284" r="138" fill="#dfd0bd"/>
    <ellipse cx="650" cy="284" rx="104" ry="68" fill="none" stroke="url(#gold)" stroke-width="8" transform="rotate(-22 650 284)"/>
    <circle cx="726" cy="248" r="35" fill="#f9f8f4" stroke="#c49a5d" stroke-width="10"/>
    <circle cx="726" cy="248" r="14" fill="#f4f4f1" stroke="#bdb9b1" stroke-width="2"/>
    <g stroke="#d5d1ca" stroke-width="1.5"><path d="M726 233v30M711 248h30M716 238l20 20M736 238l-20 20"/></g>
  </g>

  <g transform="translate(965 315)" filter="url(#shadow)">
    <rect width="170" height="350" rx="26" fill="#171717"/>
    <rect x="8" y="10" width="154" height="330" rx="20" fill="#f8f3ec"/>
    <rect x="59" y="16" width="52" height="8" rx="4" fill="#171717"/>
    <text x="26" y="60" font-family="Georgia" font-size="16" fill="#191714">AURÉLIA</text>
    <text x="26" y="112" font-family="Georgia" font-size="28" fill="#191714">Pure</text>
    <text x="26" y="141" font-family="Georgia" font-size="28" fill="#191714">Eleganz.</text>
    <circle cx="85" cy="223" r="58" fill="#e5d8c6"/>
    <circle cx="85" cy="223" r="29" fill="#fff" stroke="#b48b50" stroke-width="9"/>
    <rect x="26" y="300" width="118" height="26" rx="13" fill="#191714"/>
    <text x="43" y="318" font-family="Arial" font-size="9" fill="#fff">JETZT ENTDECKEN</text>
  </g>

  <text x="70" y="835" font-family="Arial" font-size="16" fill="#6f675f">Responsive Webdesign · Hero-Komposition · CTA · Markenwirkung · Digital Campaign</text>
</svg>